<svg id="SvgjsSvg2320" width="5000" height="3706" xmlns="http://www.w3.org/2000/svg" version="1.1" xmlns:xlink="http://www.w3.org/1999/xlink" xmlns:svgjs="http://svgjs.com/svgjs" viewBox="0 0 248.5833282470703 184.26666259765625"><defs id="SvgjsDefs2321"></defs><g id="SvgjsG2323" transform="rotate(0 124.29166412353516 40)"><svg height="80" viewBox="0 0 95.6570053100586 98.96700286865234" xmlns="http://www.w3.org/2000/svg" version="1.1" xmlns:xlink="http://www.w3.org/1999/xlink" xmlns:svgjs="http://svgjs.com/svgjs" preserveAspectRatio="none" width="77.31666564941406" x="85.63333129882812" y="0"><g><svg data-color="1" xmlns="http://www.w3.org/2000/svg" xmlns:xlink="http://www.w3.org/1999/xlink" version="1.1" x="0px" y="0px" viewBox="0 0 95.6570053100586 98.96700286865234" enable-background="new 0 0 95.66 98.967" xml:space="preserve" width="95.6570053100586" height="98.96700286865234" fill="#1e1e1e"><path d="M92.554,21.094c-1.717,0-3.108,1.392-3.108,3.107c0,1.347,0.861,2.482,2.06,2.913L70.36,83.265l0.915-67.258  c0.063,0.003,0.119,0.019,0.184,0.019c1.715,0,3.104-1.392,3.104-3.107c0-1.717-1.39-3.107-3.104-3.107  c-1.717,0-3.107,1.39-3.107,3.107c0,1.558,1.15,2.835,2.646,3.061L56.468,79.162L48.049,6.184c1.572-0.155,2.808-1.464,2.808-3.078  C50.857,1.39,49.462,0,47.748,0c-1.714,0-3.108,1.39-3.108,3.106c0,1.592,1.201,2.888,2.743,3.071l-8.257,72.985L24.593,15.969  c1.45-0.263,2.551-1.526,2.551-3.051c0-1.717-1.391-3.107-3.106-3.107s-3.109,1.39-3.109,3.107c0,1.715,1.394,3.107,3.109,3.107  c0.096,0,0.186-0.02,0.28-0.028l0.916,67.268L4.095,27.132c1.229-0.414,2.12-1.563,2.12-2.931c0-1.715-1.392-3.107-3.108-3.107  C1.392,21.094,0,22.486,0,24.201c0,1.716,1.392,3.107,3.106,3.107c0.251,0,0.493-0.038,0.728-0.095l9.86,60.83H81.9l9.862-60.849  c0.255,0.067,0.516,0.114,0.791,0.114c1.714,0,3.104-1.391,3.104-3.107C95.66,22.486,94.268,21.094,92.554,21.094z"></path><rect x="13.639" y="91.771" width="68.461" height="7.196"></rect></svg></g><defs id="SvgjsDefs2322"></defs></svg></g><g id="SvgjsG2325" transform="rotate(0 124.29166412353516 130.50833129882812)"><svg xmlns="http://www.w3.org/2000/svg" xmlns:xlink="http://www.w3.org/1999/xlink" width="248.5833282470703" viewBox="1.0199999809265137 12.239999771118164 248.58999633789062 25.01999855041504" overflow="visible" style="overflow: visible;" transform="" version="1.1" xmlns:svgjs="http://svgjs.com/svgjs" preserveAspectRatio="none" height="25.01666259765625" x="0" y="118" fill="#000000" stroke="none"><path stroke="none" fill="#1e1e1e" d="M31.86 13.40L31.86 13.40Q30.77 13.46 30.28 13.67L30.28 13.67L30.28 13.67Q29.78 13.87 29.61 14.45L29.61 14.45L29.61 14.45Q29.44 15.03 29.44 16.32L29.44 16.32L29.44 33.18L29.44 33.18Q29.44 34.48 29.63 35.05L29.63 35.05L29.63 35.05Q29.82 35.63 30.29 35.84L30.29 35.84L30.29 35.84Q30.77 36.04 31.86 36.11L31.86 36.11L31.86 36.79L31.86 36.79Q29.78 36.69 25.84 36.69L25.84 36.69L25.84 36.69Q21.73 36.69 19.79 36.79L19.79 36.79L19.79 36.11L19.79 36.11Q21.01 36.04 21.57 35.84L21.57 35.84L21.57 35.84Q22.13 35.63 22.34 35.05L22.34 35.05L22.34 35.05Q22.54 34.48 22.54 33.18L22.54 33.18L22.54 15.81L14.35 36.75L13.80 36.75L4.22 14.93L4.22 30.12L4.22 30.12Q4.22 32.64 4.42 33.75L4.42 33.75L4.42 33.75Q4.62 34.85 5.32 35.36L5.32 35.36L5.32 35.36Q6.02 35.87 7.65 36.11L7.65 36.11L7.65 36.79L7.65 36.79Q6.26 36.69 3.84 36.69L3.84 36.69L3.84 36.69Q2.04 36.69 1.02 36.79L1.02 36.79L1.02 36.11L1.02 36.11Q2.07 35.87 2.58 35.38L2.58 35.38L2.58 35.38Q3.09 34.88 3.26 33.86L3.26 33.86L3.26 33.86Q3.43 32.84 3.43 30.80L3.43 30.80L3.43 16.32L3.43 16.32Q3.43 15.03 3.25 14.45L3.25 14.45L3.25 14.45Q3.06 13.87 2.58 13.67L2.58 13.67L2.58 13.67Q2.11 13.46 1.02 13.40L1.02 13.40L1.02 12.72L1.02 12.72Q2.04 12.82 3.84 12.82L3.84 12.82L3.84 12.82Q7.92 12.82 10.88 12.72L10.88 12.72L17.31 27.17L22.88 12.82L25.84 12.82L25.84 12.82Q29.78 12.82 31.86 12.72L31.86 12.72L31.86 13.40ZM54.73 33.93L54.73 33.93Q55.75 36.04 56.74 36.11L56.74 36.11L56.74 36.79L56.74 36.79Q55.01 36.69 51.74 36.69L51.74 36.69L51.74 36.69Q47.63 36.69 45.69 36.79L45.69 36.79L45.69 36.11L45.69 36.11Q46.74 36.04 47.25 35.75L47.25 35.75L47.25 35.75Q47.76 35.46 47.76 34.78L47.76 34.78L47.76 34.78Q47.76 34.17 47.32 33.25L47.32 33.25L45.66 29.38L39.30 29.38L39.30 29.38Q38.14 32.03 38.14 33.63L38.14 33.63L38.14 33.63Q38.14 34.99 38.96 35.51L38.96 35.51L38.96 35.51Q39.77 36.04 41.30 36.11L41.30 36.11L41.30 36.79L41.30 36.79Q38.75 36.69 36.85 36.69L36.85 36.69L36.85 36.69Q35.25 36.69 34.23 36.79L34.23 36.79L34.23 36.11L34.23 36.11Q35.05 35.97 35.75 35.09L35.75 35.09L35.75 35.09Q36.44 34.20 37.36 32.13L37.36 32.13L44.33 16.12L44.33 16.12Q45.08 16.18 45.45 16.18L45.45 16.18L45.45 16.18Q45.83 16.18 46.57 16.12L46.57 16.12L54.73 33.93ZM39.57 28.70L45.35 28.70L42.46 22.03L39.57 28.70ZM82.17 34.92L82.64 35.36L82.64 35.36Q81.69 36.31 80.55 36.79L80.55 36.79L80.55 36.79Q79.41 37.26 77.64 37.26L77.64 37.26L77.64 37.26Q75.43 37.26 74.24 36.50L74.24 36.50L74.24 36.50Q73.05 35.73 72.71 34.37L72.71 34.37L71.76 30.53L71.76 30.53Q71.46 28.66 70.81 28.03L70.81 28.03L70.81 28.03Q70.16 27.40 68.91 27.40L68.91 27.40L68.33 27.40L68.33 33.18L68.33 33.18Q68.33 34.48 68.52 35.05L68.52 35.05L68.52 35.05Q68.70 35.63 69.18 35.84L69.18 35.84L69.18 35.84Q69.65 36.04 70.74 36.11L70.74 36.11L70.74 36.79L70.74 36.79Q68.57 36.69 64.38 36.69L64.38 36.69L64.38 36.69Q60.98 36.69 59.35 36.79L59.35 36.79L59.35 36.11L59.35 36.11Q60.44 36.04 60.93 35.84L60.93 35.84L60.93 35.84Q61.43 35.63 61.60 35.05L61.60 35.05L61.60 35.05Q61.77 34.48 61.77 33.18L61.77 33.18L61.77 19.72L61.77 19.72Q61.77 18.43 61.58 17.85L61.58 17.85L61.58 17.85Q61.39 17.27 60.92 17.07L60.92 17.07L60.92 17.07Q60.44 16.86 59.35 16.80L59.35 16.80L59.35 16.12L59.35 16.12Q60.98 16.22 64.18 16.22L64.18 16.22L68.33 16.18L68.33 16.18Q69.04 16.15 69.99 16.15L69.99 16.15L69.99 16.15Q79.89 16.15 79.89 21.39L79.89 21.39L79.89 21.39Q79.89 23.56 77.93 25.16L77.93 25.16L77.93 25.16Q75.98 26.76 71.35 27.17L71.35 27.17L71.35 27.17Q71.49 27.17 71.71 27.18L71.71 27.18L71.71 27.18Q71.93 27.20 72.24 27.27L72.24 27.27L72.24 27.27Q75.09 27.54 76.74 28.34L76.74 28.34L76.74 28.34Q78.39 29.14 78.83 30.91L78.83 30.91L79.55 33.90L79.55 33.90Q79.75 34.75 80.09 35.07L80.09 35.07L80.09 35.07Q80.43 35.39 80.98 35.39L80.98 35.39L80.98 35.39Q81.59 35.39 82.17 34.92L82.17 34.92ZM69.82 16.80L69.82 16.80Q69.18 16.80 68.87 17.03L68.87 17.03L68.87 17.03Q68.57 17.27 68.45 17.88L68.45 17.88L68.45 17.88Q68.33 18.50 68.33 19.72L68.33 19.72L68.33 26.72L69.25 26.72L69.25 26.72Q71.46 26.72 72.27 25.42L72.27 25.42L72.27 25.42Q73.09 24.11 73.09 21.76L73.09 21.76L73.09 21.76Q73.09 19.28 72.34 18.04L72.34 18.04L72.34 18.04Q71.59 16.80 69.82 16.80L69.82 16.80ZM107.76 34.03L107.76 34.03Q108.41 34.95 108.78 35.34L108.78 35.34L108.78 35.34Q109.16 35.73 109.84 36.11L109.84 36.11L109.84 36.79L109.84 36.79Q106.98 36.69 103.72 36.69L103.72 36.69L103.72 36.69Q101.20 36.69 98.85 36.79L98.85 36.79L98.85 36.11L98.85 36.11Q99.94 36.04 100.37 35.92L100.37 35.92L100.37 35.92Q100.79 35.80 100.79 35.46L100.79 35.46L100.79 35.46Q100.79 35.12 100.45 34.58L100.45 34.58L96.03 28.12L96.03 28.12Q95.52 27.37 95.08 26.96L95.08 26.96L95.08 26.96Q94.64 26.55 93.92 26.49L93.92 26.49L93.92 33.18L93.92 33.18Q93.92 34.48 94.09 35.05L94.09 35.05L94.09 35.05Q94.26 35.63 94.76 35.84L94.76 35.84L94.76 35.84Q95.25 36.04 96.34 36.11L96.34 36.11L96.34 36.79L96.34 36.79Q94.47 36.69 90.83 36.69L90.83 36.69L90.83 36.69Q86.89 36.69 84.95 36.79L84.95 36.79L84.95 36.11L84.95 36.11Q86.04 36.04 86.53 35.84L86.53 35.84L86.53 35.84Q87.02 35.63 87.19 35.05L87.19 35.05L87.19 35.05Q87.36 34.48 87.36 33.18L87.36 33.18L87.36 19.72L87.36 19.72Q87.36 18.43 87.17 17.85L87.17 17.85L87.17 17.85Q86.99 17.27 86.51 17.07L86.51 17.07L86.51 17.07Q86.04 16.86 84.95 16.80L84.95 16.80L84.95 16.12L84.95 16.12Q86.89 16.22 90.83 16.22L90.83 16.22L90.83 16.22Q94.43 16.22 96.34 16.12L96.34 16.12L96.34 16.80L96.34 16.80Q95.25 16.86 94.76 17.07L94.76 17.07L94.76 17.07Q94.26 17.27 94.09 17.85L94.09 17.85L94.09 17.85Q93.92 18.43 93.92 19.72L93.92 19.72L93.92 25.74L93.92 25.74Q95.59 25.57 96.92 24.89L96.92 24.89L96.92 24.89Q98.24 24.21 99.70 22.81L99.70 22.81L100.49 22.07L100.49 22.07Q102.08 20.57 102.08 19.14L102.08 19.14L102.08 19.14Q102.08 18.12 101.25 17.48L101.25 17.48L101.25 17.48Q100.42 16.83 99.19 16.76L99.19 16.76L99.19 16.12L99.19 16.12Q102.05 16.22 105.25 16.22L105.25 16.22L105.25 16.22Q107.32 16.22 108.68 16.12L108.68 16.12L108.68 16.76L108.68 16.76Q107.49 17.07 106.22 17.85L106.22 17.85L106.22 17.85Q104.94 18.63 103.75 19.79L103.75 19.79L100.35 23.12L107.76 34.03ZM130.88 32.10L130.88 32.10Q130.88 34.17 131.11 36.79L131.11 36.79L131.11 36.79Q128.90 36.69 123.67 36.69L123.67 36.69L123.67 36.69Q116.19 36.69 112.45 36.79L112.45 36.79L112.45 36.11L112.45 36.11Q113.54 36.04 114.03 35.84L114.03 35.84L114.03 35.84Q114.52 35.63 114.69 35.05L114.69 35.05L114.69 35.05Q114.86 34.48 114.86 33.18L114.86 33.18L114.86 19.72L114.86 19.72Q114.86 18.43 114.67 17.85L114.67 17.85L114.67 17.85Q114.49 17.27 114.01 17.07L114.01 17.07L114.01 17.07Q113.54 16.86 112.45 16.80L112.45 16.80L112.45 16.12L112.45 16.12Q116.19 16.22 123.67 16.22L123.67 16.22L123.67 16.22Q128.43 16.22 130.43 16.12L130.43 16.12L130.43 16.12Q130.20 18.53 130.20 20.47L130.20 20.47L130.20 20.47Q130.20 21.79 130.30 22.58L130.30 22.58L129.52 22.58L129.52 22.58Q128.84 19.55 127.36 18.22L127.36 18.22L127.36 18.22Q125.88 16.90 123.60 16.90L123.60 16.90L123.16 16.90L123.16 16.90Q122.21 16.90 121.81 17.24L121.81 17.24L121.81 17.24Q121.42 17.58 121.42 18.70L121.42 18.70L121.42 26.04L122.21 26.04L122.21 26.04Q123.84 26.04 124.81 24.87L124.81 24.87L124.81 24.87Q125.78 23.70 126.05 22.24L126.05 22.24L126.83 22.24L126.83 22.24Q126.73 23.39 126.73 24.96L126.73 24.96L126.73 26.38L126.73 26.38Q126.73 28.05 126.93 30.53L126.93 30.53L126.15 30.53L126.15 30.53Q125.91 28.90 124.89 27.81L124.89 27.81L124.89 27.81Q123.87 26.72 122.21 26.72L122.21 26.72L121.42 26.72L121.42 34.20L121.42 34.20Q121.42 35.33 121.81 35.67L121.81 35.67L121.81 35.67Q122.21 36.01 123.16 36.01L123.16 36.01L123.94 36.01L123.94 36.01Q126.32 36.01 127.90 34.53L127.90 34.53L127.90 34.53Q129.48 33.05 130.20 29.65L130.20 29.65L130.98 29.65L130.98 29.65Q130.88 30.60 130.88 32.10L130.88 32.10ZM156.17 16.12L156.17 16.12Q155.93 18.94 155.93 21.15L155.93 21.15L155.93 21.15Q155.93 23.19 156.03 24.28L156.03 24.28L155.25 24.28L155.25 24.28Q154.30 20.26 152.92 18.58L152.92 18.58L152.92 18.58Q151.54 16.90 149.33 16.90L149.33 16.90L149.03 16.90L149.03 32.84L149.03 32.84Q149.03 34.27 149.30 34.92L149.30 34.92L149.30 34.92Q149.57 35.56 150.25 35.80L150.25 35.80L150.25 35.80Q150.93 36.04 152.46 36.11L152.46 36.11L152.46 36.79L152.46 36.79Q150.56 36.69 145.59 36.69L145.59 36.69L145.59 36.69Q140.66 36.69 139.03 36.79L139.03 36.79L139.03 36.11L139.03 36.11Q140.56 36.04 141.24 35.80L141.24 35.80L141.24 35.80Q141.92 35.56 142.19 34.92L142.19 34.92L142.19 34.92Q142.46 34.27 142.46 32.84L142.46 32.84L142.46 16.90L142.16 16.90L142.16 16.90Q139.95 16.90 138.57 18.58L138.57 18.58L138.57 18.58Q137.19 20.26 136.24 24.28L136.24 24.28L135.46 24.28L135.46 24.28Q135.56 23.19 135.56 21.15L135.56 21.15L135.56 21.15Q135.56 18.94 135.32 16.12L135.32 16.12L135.32 16.12Q138.35 16.22 145.59 16.22L145.59 16.22L145.59 16.22Q153.04 16.22 156.17 16.12L156.17 16.12ZM182.98 12.24L182.98 12.24Q185.16 12.24 186.72 12.82L186.72 12.82L186.72 12.82Q188.28 13.40 189.58 14.45L189.58 14.45L189.58 14.45Q189.95 14.76 190.26 14.76L190.26 14.76L190.26 14.76Q190.60 14.76 190.80 14.26L190.80 14.26L190.80 14.26Q191.00 13.77 191.11 12.72L191.11 12.72L191.89 12.72L191.89 12.72Q191.75 15.13 191.75 21.22L191.75 21.22L190.97 21.22L190.97 21.22Q190.73 18.53 190.09 16.97L190.09 16.97L190.09 16.97Q189.44 15.40 187.84 14.31L187.84 14.31L187.84 14.31Q187.13 13.84 186.19 13.57L186.19 13.57L186.19 13.57Q185.26 13.29 184.34 13.29L184.34 13.29L184.34 13.29Q181.89 13.29 180.38 15.01L180.38 15.01L180.38 15.01Q178.87 16.73 178.24 19.35L178.24 19.35L178.24 19.35Q177.61 21.96 177.61 24.82L177.61 24.82L177.61 24.82Q177.61 30.74 179.05 33.66L179.05 33.66L179.05 33.66Q180.50 36.58 183.08 36.58L183.08 36.58L183.08 36.58Q184.14 36.58 184.75 36.18L184.75 36.18L184.75 36.18Q185.46 35.67 185.46 34.48L185.46 34.48L185.46 31.08L185.46 31.08Q185.46 29.38 185.19 28.58L185.19 28.58L185.19 28.58Q184.92 27.78 184.22 27.49L184.22 27.49L184.22 27.49Q183.52 27.20 182.03 27.13L182.03 27.13L182.03 26.45L182.03 26.45Q184.34 26.55 188.52 26.55L188.52 26.55L188.52 26.55Q192.02 26.55 193.76 26.45L193.76 26.45L193.76 27.13L193.76 27.13Q193.15 27.20 192.86 27.40L192.86 27.40L192.86 27.40Q192.57 27.61 192.47 28.19L192.47 28.19L192.47 28.19Q192.36 28.76 192.36 30.06L192.36 30.06L192.36 36.79L191.68 36.79L191.68 36.79Q191.65 36.07 191.38 35.46L191.38 35.46L191.38 35.46Q191.11 34.85 190.63 34.85L190.63 34.85L190.63 34.85Q189.92 34.85 188.32 35.63L188.32 35.63L188.32 35.63Q184.92 37.26 182.57 37.26L182.57 37.26L182.57 37.26Q176.25 37.26 173.02 34.07L173.02 34.07L173.02 34.07Q169.79 30.87 169.79 24.96L169.79 24.96L169.79 24.96Q169.79 21.22 171.47 18.33L171.47 18.33L171.47 18.33Q173.15 15.44 176.15 13.84L176.15 13.84L176.15 13.84Q179.14 12.24 182.98 12.24L182.98 12.24ZM209.63 15.64L209.63 15.64Q213.27 15.64 216.00 16.88L216.00 16.88L216.00 16.88Q218.74 18.12 220.25 20.52L220.25 20.52L220.25 20.52Q221.77 22.92 221.77 26.25L221.77 26.25L221.77 26.25Q221.77 29.51 220.22 32.01L220.22 32.01L220.22 32.01Q218.67 34.51 215.90 35.89L215.90 35.89L215.90 35.89Q213.13 37.26 209.60 37.26L209.60 37.26L209.60 37.26Q205.96 37.26 203.22 36.02L203.22 36.02L203.22 36.02Q200.48 34.78 198.97 32.39L198.97 32.39L198.97 32.39Q197.46 29.99 197.46 26.66L197.46 26.66L197.46 26.66Q197.46 23.39 199.00 20.89L199.00 20.89L199.00 20.89Q200.55 18.39 203.32 17.02L203.32 17.02L203.32 17.02Q206.09 15.64 209.63 15.64L209.63 15.64ZM209.49 16.25L209.49 16.25Q207.93 16.25 206.74 17.56L206.74 17.56L206.74 17.56Q205.55 18.87 204.90 21.20L204.90 21.20L204.90 21.20Q204.26 23.53 204.26 26.52L204.26 26.52L204.26 26.52Q204.26 29.55 204.99 31.86L204.99 31.86L204.99 31.86Q205.72 34.17 206.96 35.41L206.96 35.41L206.96 35.41Q208.20 36.65 209.73 36.65L209.73 36.65L209.73 36.65Q211.30 36.65 212.49 35.34L212.49 35.34L212.49 35.34Q213.68 34.03 214.32 31.71L214.32 31.71L214.32 31.71Q214.97 29.38 214.97 26.38L214.97 26.38L214.97 26.38Q214.97 23.36 214.24 21.05L214.24 21.05L214.24 21.05Q213.51 18.73 212.27 17.49L212.27 17.49L212.27 17.49Q211.02 16.25 209.49 16.25L209.49 16.25ZM236.93 16.12L236.93 16.12Q243.28 16.12 246.45 18.67L246.45 18.67L246.45 18.67Q249.61 21.22 249.61 26.18L249.61 26.18L249.61 26.18Q249.61 29.38 248.06 31.77L248.06 31.77L248.06 31.77Q246.51 34.17 243.59 35.48L243.59 35.48L243.59 35.48Q240.67 36.79 236.62 36.79L236.62 36.79L234.24 36.75L234.24 36.75Q231.93 36.69 230.84 36.69L230.84 36.69L230.84 36.69Q227.58 36.69 225.94 36.79L225.94 36.79L225.94 36.11L225.94 36.11Q227.03 36.04 227.53 35.84L227.53 35.84L227.53 35.84Q228.02 35.63 228.19 35.05L228.19 35.05L228.19 35.05Q228.36 34.48 228.36 33.18L228.36 33.18L228.36 19.72L228.36 19.72Q228.36 18.43 228.17 17.85L228.17 17.85L228.17 17.85Q227.98 17.27 227.51 17.07L227.51 17.07L227.51 17.07Q227.03 16.86 225.94 16.80L225.94 16.80L225.94 16.12L225.94 16.12Q227.27 16.22 229.79 16.22L229.79 16.22L233.22 16.18L233.22 16.18Q235.94 16.12 236.93 16.12L236.93 16.12ZM236.76 16.73L236.76 16.73Q235.97 16.73 235.58 16.97L235.58 16.97L235.58 16.97Q235.19 17.20 235.06 17.82L235.06 17.82L235.06 17.82Q234.92 18.43 234.92 19.65L234.92 19.65L234.92 33.25L234.92 33.25Q234.92 34.48 235.06 35.09L235.06 35.09L235.06 35.09Q235.19 35.70 235.58 35.94L235.58 35.94L235.58 35.94Q235.97 36.18 236.79 36.18L236.79 36.18L236.79 36.18Q240.16 36.18 241.48 33.78L241.48 33.78L241.48 33.78Q242.81 31.38 242.81 26.32L242.81 26.32L242.81 26.32Q242.81 21.35 241.43 19.04L241.43 19.04L241.43 19.04Q240.05 16.73 236.76 16.73L236.76 16.73Z" transform="rotate(0 125.31499814987183 24.749999046325684)"></path><defs id="SvgjsDefs2324"></defs></svg></g><g id="SvgjsG2327" transform="rotate(0 124.28333282470703 172.64166259765625)"><svg xmlns="http://www.w3.org/2000/svg" xmlns:xlink="http://www.w3.org/1999/xlink" width="222.03334045410156" viewBox="1.4900000095367432 3.359999895095825 222.0399932861328 15.250000953674316" overflow="visible" style="overflow: visible;" transform="" version="1.1" xmlns:svgjs="http://svgjs.com/svgjs" preserveAspectRatio="none" height="15.25" x="13.26666259765625" y="165.01666259765625" fill="#000000" stroke="none"><path stroke="none" fill="#1e1e1e" d="M2.30 14.30L9.06 14.30L9.06 15.04L1.49 15.04L1.49 3.68L8.91 3.68L8.91 4.42L2.30 4.42L2.30 8.88L8.08 8.88L8.08 9.58L2.30 9.58L2.30 14.30ZM18.74 10.26L18.74 15.04L17.94 15.04L17.94 10.40L17.94 10.40Q17.94 8.78 17.49 8.05L17.49 8.05L17.49 8.05Q17.03 7.31 16.04 7.31L16.04 7.31L16.04 7.31Q15.51 7.31 14.99 7.50L14.99 7.50L14.99 7.50Q14.47 7.70 14.02 8.05L14.02 8.05L14.02 8.05Q13.58 8.40 13.24 8.87L13.24 8.87L13.24 8.87Q12.90 9.34 12.74 9.89L12.74 9.89L12.74 15.04L11.94 15.04L11.94 6.72L12.70 6.72L12.70 8.70L12.70 8.70Q12.95 8.22 13.33 7.83L13.33 7.83L13.33 7.83Q13.70 7.44 14.18 7.16L14.18 7.16L14.18 7.16Q14.65 6.88 15.18 6.73L15.18 6.73L15.18 6.73Q15.70 6.58 16.26 6.58L16.26 6.58L16.26 6.58Q17.62 6.58 18.18 7.53L18.18 7.53L18.18 7.53Q18.74 8.48 18.74 10.26L18.74 10.26ZM28.96 10.26L28.96 15.04L28.16 15.04L28.16 10.40L28.16 10.40Q28.16 7.31 26.10 7.31L26.10 7.31L26.10 7.31Q25.58 7.31 25.10 7.50L25.10 7.50L25.10 7.50Q24.61 7.70 24.18 8.05L24.18 8.05L24.18 8.05Q23.76 8.40 23.44 8.87L23.44 8.87L23.44 8.87Q23.12 9.34 22.96 9.89L22.96 9.89L22.96 15.04L22.16 15.04L22.16 3.36L22.96 3.36L22.96 8.70L22.96 8.70Q23.47 7.73 24.38 7.15L24.38 7.15L24.38 7.15Q25.28 6.58 26.32 6.58L26.32 6.58L26.32 6.58Q27.01 6.58 27.50 6.83L27.50 6.83L27.50 6.83Q28 7.09 28.33 7.57L28.33 7.57L28.33 7.57Q28.66 8.05 28.81 8.73L28.81 8.73L28.81 8.73Q28.96 9.41 28.96 10.26L28.96 10.26ZM34.42 15.20L34.42 15.20L34.42 15.20Q33.85 15.20 33.35 15.00L33.35 15.00L33.35 15.00Q32.86 14.80 32.48 14.46L32.48 14.46L32.48 14.46Q32.10 14.11 31.90 13.64L31.90 13.64L31.90 13.64Q31.69 13.17 31.69 12.62L31.69 12.62L31.69 12.62Q31.69 12.08 31.94 11.63L31.94 11.63L31.94 11.63Q32.20 11.18 32.66 10.86L32.66 10.86L32.66 10.86Q33.11 10.53 33.75 10.34L33.75 10.34L33.75 10.34Q34.39 10.16 35.16 10.16L35.16 10.16L35.16 10.16Q35.83 10.16 36.51 10.28L36.51 10.28L36.51 10.28Q37.19 10.40 37.74 10.61L37.74 10.61L37.74 9.79L37.74 9.79Q37.74 8.61 37.06 7.91L37.06 7.91L37.06 7.91Q36.39 7.22 35.24 7.22L35.24 7.22L35.24 7.22Q34.63 7.22 33.95 7.47L33.95 7.47L33.95 7.47Q33.27 7.73 32.57 8.21L32.57 8.21L32.26 7.66L32.26 7.66Q33.86 6.58 35.30 6.58L35.30 6.58L35.30 6.58Q36.81 6.58 37.67 7.45L37.67 7.45L37.67 7.45Q38.54 8.32 38.54 9.86L38.54 9.86L38.54 13.92L38.54 13.92Q38.54 14.32 38.89 14.32L38.89 14.32L38.89 15.04L38.89 15.04Q38.81 15.06 38.72 15.06L38.72 15.06L38.72 15.06Q38.63 15.07 38.57 15.07L38.57 15.07L38.57 15.07Q38.25 15.07 38.06 14.86L38.06 14.86L38.06 14.86Q37.86 14.64 37.83 14.34L37.83 14.34L37.83 13.65L37.83 13.65Q37.26 14.40 36.36 14.80L36.36 14.80L36.36 14.80Q35.46 15.20 34.42 15.20ZM34.58 14.56L34.58 14.56L34.58 14.56Q35.51 14.56 36.29 14.21L36.29 14.21L36.29 14.21Q37.06 13.86 37.48 13.28L37.48 13.28L37.48 13.28Q37.74 12.94 37.74 12.64L37.74 12.64L37.74 11.17L37.74 11.17Q37.16 10.94 36.54 10.83L36.54 10.83L36.54 10.83Q35.91 10.72 35.24 10.72L35.24 10.72L35.24 10.72Q34.62 10.72 34.10 10.86L34.10 10.86L34.10 10.86Q33.59 10.99 33.22 11.23L33.22 11.23L33.22 11.23Q32.86 11.47 32.66 11.82L32.66 11.82L32.66 11.82Q32.46 12.16 32.46 12.58L32.46 12.58L32.46 12.58Q32.46 12.99 32.62 13.36L32.62 13.36L32.62 13.36Q32.78 13.73 33.06 13.99L33.06 13.99L33.06 13.99Q33.35 14.26 33.74 14.41L33.74 14.41L33.74 14.41Q34.14 14.56 34.58 14.56ZM48.77 10.26L48.77 15.04L47.97 15.04L47.97 10.40L47.97 10.40Q47.97 8.78 47.51 8.05L47.51 8.05L47.51 8.05Q47.06 7.31 46.06 7.31L46.06 7.31L46.06 7.31Q45.54 7.31 45.02 7.50L45.02 7.50L45.02 7.50Q44.50 7.70 44.05 8.05L44.05 8.05L44.05 8.05Q43.60 8.40 43.26 8.87L43.26 8.87L43.26 8.87Q42.93 9.34 42.77 9.89L42.77 9.89L42.77 15.04L41.97 15.04L41.97 6.72L42.72 6.72L42.72 8.70L42.72 8.70Q42.98 8.22 43.35 7.83L43.35 7.83L43.35 7.83Q43.73 7.44 44.20 7.16L44.20 7.16L44.20 7.16Q44.67 6.88 45.20 6.73L45.20 6.73L45.20 6.73Q45.73 6.58 46.29 6.58L46.29 6.58L46.29 6.58Q47.65 6.58 48.21 7.53L48.21 7.53L48.21 7.53Q48.77 8.48 48.77 10.26L48.77 10.26ZM51.61 10.85L51.61 10.85L51.61 10.85Q51.61 9.97 51.91 9.18L51.91 9.18L51.91 9.18Q52.22 8.40 52.76 7.82L52.76 7.82L52.76 7.82Q53.30 7.25 54.06 6.91L54.06 6.91L54.06 6.91Q54.81 6.58 55.70 6.58L55.70 6.58L55.70 6.58Q56.84 6.58 57.70 7.09L57.70 7.09L57.70 7.09Q58.57 7.60 59 8.51L59 8.51L58.22 8.77L58.22 8.77Q57.85 8.08 57.17 7.69L57.17 7.69L57.17 7.69Q56.49 7.30 55.67 7.30L55.67 7.30L55.67 7.30Q54.98 7.30 54.39 7.57L54.39 7.57L54.39 7.57Q53.80 7.84 53.36 8.32L53.36 8.32L53.36 8.32Q52.92 8.80 52.66 9.45L52.66 9.45L52.66 9.45Q52.41 10.10 52.41 10.85L52.41 10.85L52.41 10.85Q52.41 11.60 52.67 12.26L52.67 12.26L52.67 12.26Q52.94 12.93 53.38 13.42L53.38 13.42L53.38 13.42Q53.82 13.90 54.42 14.19L54.42 14.19L54.42 14.19Q55.02 14.48 55.69 14.48L55.69 14.48L55.69 14.48Q56.12 14.48 56.54 14.35L56.54 14.35L56.54 14.35Q56.97 14.22 57.33 14.02L57.33 14.02L57.33 14.02Q57.69 13.81 57.95 13.53L57.95 13.53L57.95 13.53Q58.22 13.25 58.31 12.94L58.31 12.94L59.10 13.17L59.10 13.17Q58.94 13.60 58.61 13.98L58.61 13.98L58.61 13.98Q58.28 14.35 57.83 14.62L57.83 14.62L57.83 14.62Q57.38 14.90 56.84 15.05L56.84 15.05L56.84 15.05Q56.30 15.20 55.72 15.20L55.72 15.20L55.72 15.20Q54.84 15.20 54.09 14.86L54.09 14.86L54.09 14.86Q53.34 14.51 52.78 13.91L52.78 13.91L52.78 13.91Q52.23 13.31 51.92 12.53L51.92 12.53L51.92 12.53Q51.61 11.74 51.61 10.85ZM65.36 15.20L65.36 15.20L65.36 15.20Q64.48 15.20 63.73 14.86L63.73 14.86L63.73 14.86Q62.98 14.51 62.42 13.91L62.42 13.91L62.42 13.91Q61.87 13.31 61.56 12.53L61.56 12.53L61.56 12.53Q61.25 11.74 61.25 10.85L61.25 10.85L61.25 10.85Q61.25 9.97 61.56 9.19L61.56 9.19L61.56 9.19Q61.87 8.42 62.42 7.83L62.42 7.83L62.42 7.83Q62.96 7.25 63.70 6.91L63.70 6.91L63.70 6.91Q64.45 6.58 65.31 6.58L65.31 6.58L65.31 6.58Q66.19 6.58 66.94 6.92L66.94 6.92L66.94 6.92Q67.70 7.26 68.24 7.85L68.24 7.85L68.24 7.85Q68.78 8.43 69.09 9.21L69.09 9.21L69.09 9.21Q69.39 9.98 69.39 10.85L69.39 10.85L69.39 10.85Q69.39 10.93 69.39 11.05L69.39 11.05L69.39 11.05Q69.39 11.17 69.38 11.20L69.38 11.20L62.08 11.20L62.08 11.20Q62.13 11.92 62.42 12.54L62.42 12.54L62.42 12.54Q62.70 13.15 63.14 13.60L63.14 13.60L63.14 13.60Q63.58 14.05 64.16 14.30L64.16 14.30L64.16 14.30Q64.74 14.56 65.39 14.56L65.39 14.56L65.39 14.56Q65.82 14.56 66.24 14.44L66.24 14.44L66.24 14.44Q66.66 14.32 67.02 14.11L67.02 14.11L67.02 14.11Q67.38 13.90 67.66 13.61L67.66 13.61L67.66 13.61Q67.94 13.31 68.10 12.96L68.10 12.96L68.80 13.15L68.80 13.15Q68.62 13.60 68.28 13.98L68.28 13.98L68.28 13.98Q67.94 14.35 67.48 14.62L67.48 14.62L67.48 14.62Q67.02 14.90 66.48 15.05L66.48 15.05L66.48 15.05Q65.94 15.20 65.36 15.20ZM62.06 10.56L68.62 10.56L68.62 10.56Q68.58 9.82 68.30 9.22L68.30 9.22L68.30 9.22Q68.02 8.61 67.58 8.17L67.58 8.17L67.58 8.17Q67.14 7.73 66.56 7.48L66.56 7.48L66.56 7.48Q65.98 7.23 65.33 7.23L65.33 7.23L65.33 7.23Q64.67 7.23 64.10 7.48L64.10 7.48L64.10 7.48Q63.52 7.73 63.08 8.17L63.08 8.17L63.08 8.17Q62.64 8.61 62.38 9.22L62.38 9.22L62.38 9.22Q62.11 9.84 62.06 10.56L62.06 10.56ZM75.58 15.20L75.58 15.20L75.58 15.20Q74.71 15.20 73.98 14.84L73.98 14.84L73.98 14.84Q73.24 14.48 72.70 13.88L72.70 13.88L72.70 13.88Q72.17 13.28 71.87 12.50L71.87 12.50L71.87 12.50Q71.58 11.73 71.58 10.90L71.58 10.90L71.58 10.90Q71.58 10.03 71.86 9.25L71.86 9.25L71.86 9.25Q72.15 8.46 72.66 7.87L72.66 7.87L72.66 7.87Q73.18 7.28 73.87 6.93L73.87 6.93L73.87 6.93Q74.57 6.58 75.40 6.58L75.40 6.58L75.40 6.58Q75.94 6.58 76.42 6.74L76.42 6.74L76.42 6.74Q76.90 6.90 77.32 7.16L77.32 7.16L77.32 7.16Q77.74 7.42 78.07 7.78L78.07 7.78L78.07 7.78Q78.41 8.13 78.65 8.53L78.65 8.53L78.65 3.36L79.45 3.36L79.45 13.92L79.45 13.92Q79.45 14.32 79.78 14.32L79.78 14.32L79.78 15.04L79.78 15.04Q79.69 15.06 79.62 15.06L79.62 15.06L79.62 15.06Q79.56 15.07 79.50 15.07L79.50 15.07L79.50 15.07Q79.18 15.07 78.95 14.82L78.95 14.82L78.95 14.82Q78.73 14.58 78.73 14.30L78.73 14.30L78.73 13.38L78.73 13.38Q78.22 14.21 77.36 14.70L77.36 14.70L77.36 14.70Q76.50 15.20 75.58 15.20ZM75.72 14.48L75.72 14.48L75.72 14.48Q76.15 14.48 76.65 14.30L76.65 14.30L76.65 14.30Q77.14 14.13 77.57 13.82L77.57 13.82L77.57 13.82Q77.99 13.50 78.30 13.10L78.30 13.10L78.30 13.10Q78.60 12.70 78.65 12.24L78.65 12.24L78.65 9.50L78.65 9.50Q78.47 9.06 78.14 8.65L78.14 8.65L78.14 8.65Q77.82 8.24 77.40 7.94L77.40 7.94L77.40 7.94Q76.98 7.65 76.50 7.47L76.50 7.47L76.50 7.47Q76.02 7.30 75.58 7.30L75.58 7.30L75.58 7.30Q74.86 7.30 74.26 7.61L74.26 7.61L74.26 7.61Q73.67 7.92 73.26 8.42L73.26 8.42L73.26 8.42Q72.84 8.93 72.62 9.58L72.62 9.58L72.62 9.58Q72.39 10.22 72.39 10.91L72.39 10.91L72.39 10.91Q72.39 11.63 72.65 12.27L72.65 12.27L72.65 12.27Q72.90 12.91 73.36 13.41L73.36 13.41L73.36 13.41Q73.82 13.90 74.42 14.19L74.42 14.19L74.42 14.19Q75.02 14.48 75.72 14.48ZM95.83 3.68L95.83 4.42L91.67 4.42L91.67 15.04L90.86 15.04L90.86 4.42L86.70 4.42L86.70 3.68L95.83 3.68ZM100.53 6.69L100.53 7.44L100.53 7.44Q99.41 7.47 98.57 8.10L98.57 8.10L98.57 8.10Q97.73 8.74 97.39 9.84L97.39 9.84L97.39 15.04L96.59 15.04L96.59 6.72L97.36 6.72L97.36 8.77L97.36 8.77Q97.79 7.89 98.50 7.34L98.50 7.34L98.50 7.34Q99.22 6.78 100.03 6.70L100.03 6.70L100.03 6.70Q100.19 6.69 100.32 6.69L100.32 6.69L100.32 6.69Q100.45 6.69 100.53 6.69L100.53 6.69ZM104.98 15.20L104.98 15.20L104.98 15.20Q104.41 15.20 103.91 15.00L103.91 15.00L103.91 15.00Q103.42 14.80 103.04 14.46L103.04 14.46L103.04 14.46Q102.66 14.11 102.46 13.64L102.46 13.64L102.46 13.64Q102.25 13.17 102.25 12.62L102.25 12.62L102.25 12.62Q102.25 12.08 102.50 11.63L102.50 11.63L102.50 11.63Q102.76 11.18 103.22 10.86L103.22 10.86L103.22 10.86Q103.67 10.53 104.31 10.34L104.31 10.34L104.31 10.34Q104.95 10.16 105.72 10.16L105.72 10.16L105.72 10.16Q106.39 10.16 107.07 10.28L107.07 10.28L107.07 10.28Q107.75 10.40 108.30 10.61L108.30 10.61L108.30 9.79L108.30 9.79Q108.30 8.61 107.62 7.91L107.62 7.91L107.62 7.91Q106.95 7.22 105.80 7.22L105.80 7.22L105.80 7.22Q105.19 7.22 104.51 7.47L104.51 7.47L104.51 7.47Q103.83 7.73 103.13 8.21L103.13 8.21L102.82 7.66L102.82 7.66Q104.42 6.58 105.86 6.58L105.86 6.58L105.86 6.58Q107.37 6.58 108.23 7.45L108.23 7.45L108.23 7.45Q109.10 8.32 109.10 9.86L109.10 9.86L109.10 13.92L109.10 13.92Q109.10 14.32 109.45 14.32L109.45 14.32L109.45 15.04L109.45 15.04Q109.37 15.06 109.28 15.06L109.28 15.06L109.28 15.06Q109.19 15.07 109.13 15.07L109.13 15.07L109.13 15.07Q108.81 15.07 108.62 14.86L108.62 14.86L108.62 14.86Q108.42 14.64 108.39 14.34L108.39 14.34L108.39 13.65L108.39 13.65Q107.82 14.40 106.92 14.80L106.92 14.80L106.92 14.80Q106.02 15.20 104.98 15.20ZM105.14 14.56L105.14 14.56L105.14 14.56Q106.07 14.56 106.85 14.21L106.85 14.21L106.85 14.21Q107.62 13.86 108.04 13.28L108.04 13.28L108.04 13.28Q108.30 12.94 108.30 12.64L108.30 12.64L108.30 11.17L108.30 11.17Q107.72 10.94 107.10 10.83L107.10 10.83L107.10 10.83Q106.47 10.72 105.80 10.72L105.80 10.72L105.80 10.72Q105.18 10.72 104.66 10.86L104.66 10.86L104.66 10.86Q104.15 10.99 103.78 11.23L103.78 11.23L103.78 11.23Q103.42 11.47 103.22 11.82L103.22 11.82L103.22 11.82Q103.02 12.16 103.02 12.58L103.02 12.58L103.02 12.58Q103.02 12.99 103.18 13.36L103.18 13.36L103.18 13.36Q103.34 13.73 103.62 13.99L103.62 13.99L103.62 13.99Q103.91 14.26 104.30 14.41L104.30 14.41L104.30 14.41Q104.70 14.56 105.14 14.56ZM115.95 15.20L115.95 15.20L115.95 15.20Q115.09 15.20 114.35 14.84L114.35 14.84L114.35 14.84Q113.62 14.48 113.08 13.88L113.08 13.88L113.08 13.88Q112.54 13.28 112.25 12.50L112.25 12.50L112.25 12.50Q111.95 11.73 111.95 10.90L111.95 10.90L111.95 10.90Q111.95 10.03 112.24 9.25L112.24 9.25L112.24 9.25Q112.53 8.46 113.04 7.87L113.04 7.87L113.04 7.87Q113.55 7.28 114.25 6.93L114.25 6.93L114.25 6.93Q114.94 6.58 115.78 6.58L115.78 6.58L115.78 6.58Q116.32 6.58 116.80 6.74L116.80 6.74L116.80 6.74Q117.28 6.90 117.70 7.16L117.70 7.16L117.70 7.16Q118.11 7.42 118.45 7.78L118.45 7.78L118.45 7.78Q118.78 8.13 119.02 8.53L119.02 8.53L119.02 3.36L119.82 3.36L119.82 13.92L119.82 13.92Q119.82 14.32 120.16 14.32L120.16 14.32L120.16 15.04L120.16 15.04Q120.06 15.06 120 15.06L120 15.06L120 15.06Q119.94 15.07 119.87 15.07L119.87 15.07L119.87 15.07Q119.55 15.07 119.33 14.82L119.33 14.82L119.33 14.82Q119.10 14.58 119.10 14.30L119.10 14.30L119.10 13.38L119.10 13.38Q118.59 14.21 117.74 14.70L117.74 14.70L117.74 14.70Q116.88 15.20 115.95 15.20ZM116.10 14.48L116.10 14.48L116.10 14.48Q116.53 14.48 117.02 14.30L117.02 14.30L117.02 14.30Q117.52 14.13 117.94 13.82L117.94 13.82L117.94 13.82Q118.37 13.50 118.67 13.10L118.67 13.10L118.67 13.10Q118.98 12.70 119.02 12.24L119.02 12.24L119.02 9.50L119.02 9.50Q118.85 9.06 118.52 8.65L118.52 8.65L118.52 8.65Q118.19 8.24 117.78 7.94L117.78 7.94L117.78 7.94Q117.36 7.65 116.88 7.47L116.88 7.47L116.88 7.47Q116.40 7.30 115.95 7.30L115.95 7.30L115.95 7.30Q115.23 7.30 114.64 7.61L114.64 7.61L114.64 7.61Q114.05 7.92 113.63 8.42L113.63 8.42L113.63 8.42Q113.22 8.93 112.99 9.58L112.99 9.58L112.99 9.58Q112.77 10.22 112.77 10.91L112.77 10.91L112.77 10.91Q112.77 11.63 113.02 12.27L113.02 12.27L113.02 12.27Q113.28 12.91 113.74 13.41L113.74 13.41L113.74 13.41Q114.19 13.90 114.79 14.19L114.79 14.19L114.79 14.19Q115.39 14.48 116.10 14.48ZM124.17 15.04L123.37 15.04L123.37 6.72L124.17 6.72L124.17 15.04ZM124.17 4.83L123.37 4.83L123.37 3.36L124.17 3.36L124.17 4.83ZM134.48 10.26L134.48 15.04L133.68 15.04L133.68 10.40L133.68 10.40Q133.68 8.78 133.22 8.05L133.22 8.05L133.22 8.05Q132.77 7.31 131.78 7.31L131.78 7.31L131.78 7.31Q131.25 7.31 130.73 7.50L130.73 7.50L130.73 7.50Q130.21 7.70 129.76 8.05L129.76 8.05L129.76 8.05Q129.31 8.40 128.98 8.87L128.98 8.87L128.98 8.87Q128.64 9.34 128.48 9.89L128.48 9.89L128.48 15.04L127.68 15.04L127.68 6.72L128.43 6.72L128.43 8.70L128.43 8.70Q128.69 8.22 129.06 7.83L129.06 7.83L129.06 7.83Q129.44 7.44 129.91 7.16L129.91 7.16L129.91 7.16Q130.38 6.88 130.91 6.73L130.91 6.73L130.91 6.73Q131.44 6.58 132 6.58L132 6.58L132 6.58Q133.36 6.58 133.92 7.53L133.92 7.53L133.92 7.53Q134.48 8.48 134.48 10.26L134.48 10.26ZM141.26 15.17L141.26 15.17L141.26 15.17Q140.39 15.17 139.67 14.81L139.67 14.81L139.67 14.81Q138.95 14.45 138.43 13.85L138.43 13.85L138.43 13.85Q137.91 13.25 137.62 12.48L137.62 12.48L137.62 12.48Q137.32 11.71 137.32 10.90L137.32 10.90L137.32 10.90Q137.32 10.05 137.60 9.26L137.60 9.26L137.60 9.26Q137.88 8.48 138.39 7.88L138.39 7.88L138.39 7.88Q138.90 7.28 139.62 6.93L139.62 6.93L139.62 6.93Q140.33 6.58 141.19 6.58L141.19 6.58L141.19 6.58Q142.28 6.58 143.09 7.14L143.09 7.14L143.09 7.14Q143.90 7.71 144.46 8.53L144.46 8.53L144.46 6.72L145.19 6.72L145.19 15.20L145.19 15.20Q145.19 16.05 144.87 16.69L144.87 16.69L144.87 16.69Q144.55 17.33 144.02 17.75L144.02 17.75L144.02 17.75Q143.48 18.18 142.77 18.39L142.77 18.39L142.77 18.39Q142.06 18.61 141.27 18.61L141.27 18.61L141.27 18.61Q140.55 18.61 139.98 18.47L139.98 18.47L139.98 18.47Q139.40 18.34 138.96 18.09L138.96 18.09L138.96 18.09Q138.52 17.84 138.18 17.48L138.18 17.48L138.18 17.48Q137.83 17.12 137.58 16.69L137.58 16.69L138.12 16.32L138.12 16.32Q138.62 17.17 139.46 17.56L139.46 17.56L139.46 17.56Q140.31 17.95 141.27 17.95L141.27 17.95L141.27 17.95Q141.91 17.95 142.48 17.78L142.48 17.78L142.48 17.78Q143.05 17.60 143.47 17.26L143.47 17.26L143.47 17.26Q143.90 16.91 144.14 16.40L144.14 16.40L144.14 16.40Q144.39 15.89 144.39 15.20L144.39 15.20L144.39 13.38L144.39 13.38Q143.88 14.19 143.03 14.68L143.03 14.68L143.03 14.68Q142.18 15.17 141.26 15.17ZM141.45 14.48L141.45 14.48L141.45 14.48Q141.98 14.48 142.48 14.28L142.48 14.28L142.48 14.28Q142.98 14.08 143.39 13.76L143.39 13.76L143.39 13.76Q143.80 13.44 144.06 13.04L144.06 13.04L144.06 13.04Q144.33 12.64 144.39 12.24L144.39 12.24L144.39 9.50L144.39 9.50Q144.20 9.02 143.88 8.62L143.88 8.62L143.88 8.62Q143.56 8.21 143.15 7.92L143.15 7.92L143.15 7.92Q142.74 7.63 142.27 7.46L142.27 7.46L142.27 7.46Q141.80 7.30 141.32 7.30L141.32 7.30L141.32 7.30Q140.57 7.30 139.98 7.62L139.98 7.62L139.98 7.62Q139.38 7.94 138.98 8.45L138.98 8.45L138.98 8.45Q138.57 8.96 138.35 9.61L138.35 9.61L138.35 9.61Q138.14 10.26 138.14 10.91L138.14 10.91L138.14 10.91Q138.14 11.63 138.39 12.27L138.39 12.27L138.39 12.27Q138.65 12.91 139.10 13.41L139.10 13.41L139.10 13.41Q139.54 13.90 140.15 14.19L140.15 14.19L140.15 14.19Q140.76 14.48 141.45 14.48ZM154.86 15.04L154.04 15.04L154.04 3.68L154.86 3.68L154.86 15.04ZM165.39 10.26L165.39 15.04L164.59 15.04L164.59 10.40L164.59 10.40Q164.59 8.78 164.14 8.05L164.14 8.05L164.14 8.05Q163.68 7.31 162.69 7.31L162.69 7.31L162.69 7.31Q162.16 7.31 161.64 7.50L161.64 7.50L161.64 7.50Q161.12 7.70 160.67 8.05L160.67 8.05L160.67 8.05Q160.22 8.40 159.89 8.87L159.89 8.87L159.89 8.87Q159.55 9.34 159.39 9.89L159.39 9.89L159.39 15.04L158.59 15.04L158.59 6.72L159.34 6.72L159.34 8.70L159.34 8.70Q159.60 8.22 159.98 7.83L159.98 7.83L159.98 7.83Q160.35 7.44 160.82 7.16L160.82 7.16L160.82 7.16Q161.30 6.88 161.82 6.73L161.82 6.73L161.82 6.73Q162.35 6.58 162.91 6.58L162.91 6.58L162.91 6.58Q164.27 6.58 164.83 7.53L164.83 7.53L164.83 7.53Q165.39 8.48 165.39 10.26L165.39 10.26ZM172.23 15.20L172.23 15.20L172.23 15.20Q171.37 15.20 170.63 14.84L170.63 14.84L170.63 14.84Q169.90 14.48 169.36 13.88L169.36 13.88L169.36 13.88Q168.82 13.28 168.53 12.50L168.53 12.50L168.53 12.50Q168.23 11.73 168.23 10.90L168.23 10.90L168.23 10.90Q168.23 10.03 168.52 9.25L168.52 9.25L168.52 9.25Q168.81 8.46 169.32 7.87L169.32 7.87L169.32 7.87Q169.83 7.28 170.53 6.93L170.53 6.93L170.53 6.93Q171.22 6.58 172.06 6.58L172.06 6.58L172.06 6.58Q172.60 6.58 173.08 6.74L173.08 6.74L173.08 6.74Q173.56 6.90 173.98 7.16L173.98 7.16L173.98 7.16Q174.39 7.42 174.73 7.78L174.73 7.78L174.73 7.78Q175.06 8.13 175.30 8.53L175.30 8.53L175.30 3.36L176.10 3.36L176.10 13.92L176.10 13.92Q176.10 14.32 176.44 14.32L176.44 14.32L176.44 15.04L176.44 15.04Q176.34 15.06 176.28 15.06L176.28 15.06L176.28 15.06Q176.22 15.07 176.15 15.07L176.15 15.07L176.15 15.07Q175.83 15.07 175.61 14.82L175.61 14.82L175.61 14.82Q175.38 14.58 175.38 14.30L175.38 14.30L175.38 13.38L175.38 13.38Q174.87 14.21 174.02 14.70L174.02 14.70L174.02 14.70Q173.16 15.20 172.23 15.20ZM172.38 14.48L172.38 14.48L172.38 14.48Q172.81 14.48 173.30 14.30L173.30 14.30L173.30 14.30Q173.80 14.13 174.22 13.82L174.22 13.82L174.22 13.82Q174.65 13.50 174.95 13.10L174.95 13.10L174.95 13.10Q175.26 12.70 175.30 12.24L175.30 12.24L175.30 9.50L175.30 9.50Q175.13 9.06 174.80 8.65L174.80 8.65L174.80 8.65Q174.47 8.24 174.06 7.94L174.06 7.94L174.06 7.94Q173.64 7.65 173.16 7.47L173.16 7.47L173.16 7.47Q172.68 7.30 172.23 7.30L172.23 7.30L172.23 7.30Q171.51 7.30 170.92 7.61L170.92 7.61L170.92 7.61Q170.33 7.92 169.91 8.42L169.91 8.42L169.91 8.42Q169.50 8.93 169.27 9.58L169.27 9.58L169.27 9.58Q169.05 10.22 169.05 10.91L169.05 10.91L169.05 10.91Q169.05 11.63 169.30 12.27L169.30 12.27L169.30 12.27Q169.56 12.91 170.02 13.41L170.02 13.41L170.02 13.41Q170.47 13.90 171.07 14.19L171.07 14.19L171.07 14.19Q171.67 14.48 172.38 14.48ZM180.45 15.04L179.65 15.04L179.65 6.72L180.45 6.72L180.45 15.04ZM180.45 4.83L179.65 4.83L179.65 3.36L180.45 3.36L180.45 4.83ZM183.38 10.85L183.38 10.85L183.38 10.85Q183.38 9.97 183.69 9.18L183.69 9.18L183.69 9.18Q183.99 8.40 184.54 7.82L184.54 7.82L184.54 7.82Q185.08 7.25 185.83 6.91L185.83 6.91L185.83 6.91Q186.58 6.58 187.48 6.58L187.48 6.58L187.48 6.58Q188.62 6.58 189.48 7.09L189.48 7.09L189.48 7.09Q190.34 7.60 190.78 8.51L190.78 8.51L189.99 8.77L189.99 8.77Q189.62 8.08 188.94 7.69L188.94 7.69L188.94 7.69Q188.26 7.30 187.45 7.30L187.45 7.30L187.45 7.30Q186.76 7.30 186.17 7.57L186.17 7.57L186.17 7.57Q185.58 7.84 185.14 8.32L185.14 8.32L185.14 8.32Q184.70 8.80 184.44 9.45L184.44 9.45L184.44 9.45Q184.18 10.10 184.18 10.85L184.18 10.85L184.18 10.85Q184.18 11.60 184.45 12.26L184.45 12.26L184.45 12.26Q184.71 12.93 185.15 13.42L185.15 13.42L185.15 13.42Q185.59 13.90 186.19 14.19L186.19 14.19L186.19 14.19Q186.79 14.48 187.46 14.48L187.46 14.48L187.46 14.48Q187.90 14.48 188.32 14.35L188.32 14.35L188.32 14.35Q188.74 14.22 189.10 14.02L189.10 14.02L189.10 14.02Q189.46 13.81 189.73 13.53L189.73 13.53L189.73 13.53Q189.99 13.25 190.09 12.94L190.09 12.94L190.87 13.17L190.87 13.17Q190.71 13.60 190.38 13.98L190.38 13.98L190.38 13.98Q190.06 14.35 189.61 14.62L189.61 14.62L189.61 14.62Q189.16 14.90 188.62 15.05L188.62 15.05L188.62 15.05Q188.07 15.20 187.50 15.20L187.50 15.20L187.50 15.20Q186.62 15.20 185.86 14.86L185.86 14.86L185.86 14.86Q185.11 14.51 184.56 13.91L184.56 13.91L184.56 13.91Q184.01 13.31 183.70 12.53L183.70 12.53L183.70 12.53Q183.38 11.74 183.38 10.85ZM195.73 15.20L195.73 15.20L195.73 15.20Q195.15 15.20 194.66 15.00L194.66 15.00L194.66 15.00Q194.16 14.80 193.78 14.46L193.78 14.46L193.78 14.46Q193.41 14.11 193.20 13.64L193.20 13.64L193.20 13.64Q192.99 13.17 192.99 12.62L192.99 12.62L192.99 12.62Q192.99 12.08 193.25 11.63L193.25 11.63L193.25 11.63Q193.50 11.18 193.96 10.86L193.96 10.86L193.96 10.86Q194.42 10.53 195.06 10.34L195.06 10.34L195.06 10.34Q195.70 10.16 196.46 10.16L196.46 10.16L196.46 10.16Q197.14 10.16 197.82 10.28L197.82 10.28L197.82 10.28Q198.50 10.40 199.04 10.61L199.04 10.61L199.04 9.79L199.04 9.79Q199.04 8.61 198.37 7.91L198.37 7.91L198.37 7.91Q197.70 7.22 196.54 7.22L196.54 7.22L196.54 7.22Q195.94 7.22 195.26 7.47L195.26 7.47L195.26 7.47Q194.58 7.73 193.87 8.21L193.87 8.21L193.57 7.66L193.57 7.66Q195.17 6.58 196.61 6.58L196.61 6.58L196.61 6.58Q198.11 6.58 198.98 7.45L198.98 7.45L198.98 7.45Q199.84 8.32 199.84 9.86L199.84 9.86L199.84 13.92L199.84 13.92Q199.84 14.32 200.19 14.32L200.19 14.32L200.19 15.04L200.19 15.04Q200.11 15.06 200.02 15.06L200.02 15.06L200.02 15.06Q199.94 15.07 199.87 15.07L199.87 15.07L199.87 15.07Q199.55 15.07 199.36 14.86L199.36 14.86L199.36 14.86Q199.17 14.64 199.14 14.34L199.14 14.34L199.14 13.65L199.14 13.65Q198.56 14.40 197.66 14.80L197.66 14.80L197.66 14.80Q196.77 15.20 195.73 15.20ZM195.89 14.56L195.89 14.56L195.89 14.56Q196.82 14.56 197.59 14.21L197.59 14.21L197.59 14.21Q198.37 13.86 198.78 13.28L198.78 13.28L198.78 13.28Q199.04 12.94 199.04 12.64L199.04 12.64L199.04 11.17L199.04 11.17Q198.46 10.94 197.84 10.83L197.84 10.83L197.84 10.83Q197.22 10.72 196.54 10.72L196.54 10.72L196.54 10.72Q195.92 10.72 195.41 10.86L195.41 10.86L195.41 10.86Q194.90 10.99 194.53 11.23L194.53 11.23L194.53 11.23Q194.16 11.47 193.96 11.82L193.96 11.82L193.96 11.82Q193.76 12.16 193.76 12.58L193.76 12.58L193.76 12.58Q193.76 12.99 193.92 13.36L193.92 13.36L193.92 13.36Q194.08 13.73 194.37 13.99L194.37 13.99L194.37 13.99Q194.66 14.26 195.05 14.41L195.05 14.41L195.05 14.41Q195.44 14.56 195.89 14.56ZM206.68 14L206.92 14.64L206.92 14.64Q206.86 14.67 206.70 14.76L206.70 14.76L206.70 14.76Q206.55 14.85 206.32 14.93L206.32 14.93L206.32 14.93Q206.09 15.01 205.80 15.07L205.80 15.07L205.80 15.07Q205.51 15.14 205.18 15.14L205.18 15.14L205.18 15.14Q204.84 15.14 204.54 15.04L204.54 15.04L204.54 15.04Q204.25 14.94 204.02 14.75L204.02 14.75L204.02 14.75Q203.80 14.56 203.67 14.29L203.67 14.29L203.67 14.29Q203.54 14.02 203.54 13.65L203.54 13.65L203.54 7.38L202.38 7.38L202.38 6.72L203.54 6.72L203.54 3.87L204.34 3.87L204.34 6.72L206.28 6.72L206.28 7.38L204.34 7.38L204.34 13.46L204.34 13.46Q204.34 13.92 204.66 14.15L204.66 14.15L204.66 14.15Q204.98 14.38 205.38 14.38L205.38 14.38L205.38 14.38Q205.88 14.38 206.24 14.22L206.24 14.22L206.24 14.22Q206.60 14.05 206.68 14L206.68 14ZM212.61 15.20L212.61 15.20L212.61 15.20Q211.73 15.20 210.98 14.86L210.98 14.86L210.98 14.86Q210.24 14.51 209.70 13.92L209.70 13.92L209.70 13.92Q209.15 13.33 208.85 12.54L208.85 12.54L208.85 12.54Q208.54 11.76 208.54 10.90L208.54 10.90L208.54 10.90Q208.54 10.02 208.86 9.23L208.86 9.23L208.86 9.23Q209.17 8.45 209.71 7.86L209.71 7.86L209.71 7.86Q210.26 7.26 211.00 6.92L211.00 6.92L211.00 6.92Q211.74 6.58 212.61 6.58L212.61 6.58L212.61 6.58Q213.47 6.58 214.21 6.92L214.21 6.92L214.21 6.92Q214.94 7.26 215.50 7.86L215.50 7.86L215.50 7.86Q216.05 8.45 216.36 9.23L216.36 9.23L216.36 9.23Q216.67 10.02 216.67 10.90L216.67 10.90L216.67 10.90Q216.67 11.76 216.36 12.54L216.36 12.54L216.36 12.54Q216.05 13.33 215.50 13.92L215.50 13.92L215.50 13.92Q214.96 14.51 214.22 14.86L214.22 14.86L214.22 14.86Q213.47 15.20 212.61 15.20ZM209.34 10.93L209.34 10.93L209.34 10.93Q209.34 11.66 209.60 12.31L209.60 12.31L209.60 12.31Q209.86 12.96 210.30 13.44L210.30 13.44L210.30 13.44Q210.74 13.92 211.33 14.20L211.33 14.20L211.33 14.20Q211.92 14.48 212.59 14.48L212.59 14.48L212.59 14.48Q213.26 14.48 213.86 14.20L213.86 14.20L213.86 14.20Q214.45 13.92 214.90 13.42L214.90 13.42L214.90 13.42Q215.34 12.93 215.60 12.28L215.60 12.28L215.60 12.28Q215.86 11.63 215.86 10.88L215.86 10.88L215.86 10.88Q215.86 10.14 215.60 9.50L215.60 9.50L215.60 9.50Q215.34 8.85 214.90 8.36L214.90 8.36L214.90 8.36Q214.45 7.87 213.86 7.58L213.86 7.58L213.86 7.58Q213.28 7.30 212.61 7.30L212.61 7.30L212.61 7.30Q211.94 7.30 211.34 7.58L211.34 7.58L211.34 7.58Q210.75 7.87 210.31 8.37L210.31 8.37L210.31 8.37Q209.87 8.86 209.61 9.53L209.61 9.53L209.61 9.53Q209.34 10.19 209.34 10.93ZM223.53 6.69L223.53 7.44L223.53 7.44Q222.41 7.47 221.57 8.10L221.57 8.10L221.57 8.10Q220.73 8.74 220.39 9.84L220.39 9.84L220.39 15.04L219.59 15.04L219.59 6.72L220.36 6.72L220.36 8.77L220.36 8.77Q220.79 7.89 221.50 7.34L221.50 7.34L221.50 7.34Q222.22 6.78 223.03 6.70L223.03 6.70L223.03 6.70Q223.19 6.69 223.32 6.69L223.32 6.69L223.32 6.69Q223.45 6.69 223.53 6.69L223.53 6.69Z" transform="rotate(0 112.50999665260315 10.985000371932983)"></path><defs id="SvgjsDefs2326"></defs></svg></g></svg>